<svg width="80" height="80" viewBox="0 0 80 80" fill="none" xmlns="http://www.w3.org/2000/svg">
<path d="M23.1724 11.5862C23.1724 17.9851 17.9851 23.1724 11.5862 23.1724C5.18732 23.1724 0 17.9851 0 11.5862C0 5.18732 5.18732 0 11.5862 0C17.9851 0 23.1724 5.18732 23.1724 11.5862Z" fill="#4913EC"/>
<path d="M60.689 3.20405C64.9677 -1.07449 71.9122 -1.06707 76.2 3.22067C80.4878 7.50843 80.4952 14.4528 76.2166 18.7315L36.9074 58.0408H69.0203C75.0842 58.0409 80 62.9566 80 69.0204C79.9999 75.0841 75.0841 80 69.0203 80H11.377C7.45807 80 4.01928 77.9463 2.07639 74.8571C-1.02658 70.5666 -0.652507 64.545 3.20385 60.6887L60.689 3.20405Z" fill="#4913EC"/>
</svg>
